<svg xmlns="http://www.w3.org/2000/svg" fill="none" viewBox="0 0 24 24" stroke-width="1.5" stroke="currentColor">
  <path stroke-linecap="round" stroke-linejoin="round" d="M8.25 18.75a1.5 1.5 0 01-3 0m3 0a1.5 1.5 0 00-3 0m3 0h6m-9 0H3.375a1.125 1.125 0 01-1.125-1.125V14.25m17.25 4.5a1.5 1.5 0 01-3 0m3 0a1.5 1.5 0 00-3 0m3 0h1.125c.621 0 1.125-.504 1.125-1.125V14.25m-17.25 4.5v-1.875a3.375 3.375 0 013.375-3.375h9.75a3.375 3.375 0 013.375 3.375v1.875m-17.25 4.5h16.5M6 13.5v-1.5a.75.75 0 01.75-.75h3a.75.75 0 01.75.75v1.5m6 0v-1.5a.75.75 0 01.75-.75h3a.75.75 0 01.75.75v1.5m-12-6.375c.621 0 1.125-.504 1.125-1.125V4.875c0-.621-.504-1.125-1.125-1.125H4.125C3.504 3.75 3 4.254 3 4.875v1.125c0 .621.504 1.125 1.125 1.125h1.875z" />
</svg>
